{"glyphs":{"0":{"ha":903,"x_min":69,"x_max":833,"o":"m 833 104 l 729 0 l 174 0 l 69 104 l 69 938 l 174 1042 l 729 1042 l 833 938 l 833 104 m 625 208 l 625 833 l 278 833 l 278 208 l 625 208 m 554 419 l 344 419 l 344 628 l 554 628 l 554 419 "},"1":{"ha":556,"x_min":69,"x_max":486,"o":"m 486 0 l 278 0 l 278 833 l 69 833 l 69 1042 l 382 1042 l 486 938 l 486 0 "},"2":{"ha":903,"x_min":69,"x_max":828,"o":"m 828 0 l 69 0 l 69 521 l 174 625 l 619 625 l 619 833 l 69 833 l 69 1042 l 724 1042 l 828 938 l 828 521 l 724 417 l 278 417 l 278 208 l 828 208 l 828 0 "},"3":{"ha":904,"x_min":69,"x_max":836,"o":"m 836 104 l 732 0 l 72 0 l 72 208 l 628 208 l 628 417 l 69 417 l 69 625 l 628 625 l 628 833 l 72 833 l 72 1042 l 732 1042 l 836 938 l 836 625 l 732 521 l 836 417 l 836 104 "},"4":{"ha":904,"x_min":69,"x_max":836,"o":"m 836 0 l 628 0 l 628 417 l 174 417 l 69 521 l 69 1042 l 278 1042 l 278 625 l 628 625 l 628 1042 l 836 1042 l 836 0 "},"5":{"ha":904,"x_min":69,"x_max":832,"o":"m 832 104 l 728 0 l 69 0 l 69 208 l 624 208 l 624 417 l 174 417 l 69 521 l 69 1042 l 832 1042 l 832 833 l 278 833 l 278 625 l 728 625 l 832 521 l 832 104 "},"6":{"ha":904,"x_min":69,"x_max":833,"o":"m 69 938 l 174 1042 l 833 1042 l 833 833 l 278 833 l 278 625 l 729 625 l 833 521 l 833 104 l 729 0 l 174 0 l 69 104 l 69 938 m 278 417 l 278 208 l 625 208 l 625 417 l 278 417 "},"7":{"ha":904,"x_min":69,"x_max":832,"o":"m 832 1 l 624 1 l 624 835 l 69 833 l 69 1042 l 728 1043 l 832 939 l 832 1 "},"8":{"ha":904,"x_min":69,"x_max":838,"o":"m 838 104 l 733 0 l 174 0 l 69 104 l 69 417 l 174 521 l 69 625 l 69 938 l 174 1042 l 733 1042 l 838 938 l 838 625 l 733 521 l 838 417 l 838 104 m 629 208 l 629 417 l 278 417 l 278 208 l 629 208 m 629 625 l 629 833 l 278 833 l 278 625 l 629 625 "},"9":{"ha":903,"x_min":69,"x_max":832,"o":"m 832 104 l 728 0 l 69 0 l 69 208 l 624 208 l 624 417 l 174 417 l 69 521 l 69 938 l 174 1042 l 728 1042 l 832 938 l 832 104 m 624 625 l 624 833 l 278 833 l 278 625 l 624 625 "}," ":{"ha":625,"x_min":0,"x_max":0,"o":""},"\u0006":{"ha":903,"x_min":347,"x_max":556,"o":"m 556 1111 l 347 1111 l 347 1319 l 556 1319 l 556 1111 "},"\b":{"ha":903,"x_min":229,"x_max":672,"o":"m 401 1218 l 507 1218 l 558 1250 l 558 1378 l 508 1411 l 401 1411 l 351 1378 l 351 1250 l 401 1218 m 544 1113 l 354 1113 l 229 1193 l 229 1447 l 357 1526 l 547 1526 l 672 1447 l 672 1193 l 544 1113 "},"\f":{"ha":904,"x_min":243,"x_max":660,"o":"m 504 1114 l 400 1114 l 243 1271 l 347 1375 l 451 1271 l 556 1375 l 660 1271 l 504 1114 "},"\r":{"ha":347,"x_min":69,"x_max":278,"o":"m 278 0 l 69 0 l 69 1042 l 278 1042 l 278 0 "},"\u0019":{"ha":921,"x_min":46,"x_max":876,"o":"m 876 1040 l 254 0 l 46 0 l 668 1040 l 876 1040 "},"\u001e":{"ha":1174,"x_min":69,"x_max":1104,"o":"m 1104 0 l 69 0 l 69 521 l 174 625 l 896 625 l 896 833 l 69 833 l 69 1042 l 1104 1042 l 1104 521 l 1000 417 l 278 417 l 278 208 l 1104 208 l 1104 0 m 640 1114 l 536 1114 l 379 1271 l 483 1375 l 588 1271 l 692 1375 l 796 1271 l 640 1114 "},"\u001f":{"ha":904,"x_min":69,"x_max":833,"o":"m 833 0 l 69 0 l 69 521 l 174 625 l 625 625 l 625 833 l 69 833 l 69 1042 l 833 1042 l 833 521 l 729 417 l 278 417 l 278 208 l 833 208 l 833 0 m 504 1114 l 400 1114 l 243 1271 l 347 1375 l 451 1271 l 556 1375 l 660 1271 l 504 1114 "},"!":{"ha":347,"x_min":69,"x_max":278,"o":"m 278 313 l 69 313 l 69 1042 l 278 1042 l 278 313 m 278 0 l 69 0 l 69 208 l 278 208 l 278 0 "},"\"":{"ha":624,"x_min":69,"x_max":556,"o":"m 278 1042 l 278 764 l 69 764 l 69 1042 l 278 1042 m 556 1042 l 556 764 l 347 764 l 347 1042 l 556 1042 "},"#":{"ha":1181,"x_min":69,"x_max":1111,"o":"m 993 1042 l 950 829 l 1111 829 l 1111 621 l 908 621 l 868 415 l 1026 415 l 1026 207 l 826 207 l 785 0 l 576 0 l 618 207 l 413 207 l 371 -1 l 163 -1 l 204 207 l 69 207 l 69 415 l 246 415 l 286 621 l 150 621 l 150 829 l 328 829 l 371 1040 l 579 1040 l 536 829 l 742 829 l 785 1042 l 993 1042 m 494 621 l 454 415 l 660 415 l 700 621 l 494 621 "},"$":{"ha":764,"x_min":69,"x_max":694,"o":"m 694 210 l 590 106 l 486 106 l 486 1 l 278 1 l 278 106 l 165 106 l 165 314 l 486 314 l 486 417 l 174 417 l 69 521 l 69 836 l 174 940 l 278 940 l 278 1044 l 486 1044 l 486 940 l 601 940 l 601 732 l 278 732 l 278 625 l 590 625 l 694 521 l 694 210 "},"%":{"ha":1328,"x_min":69,"x_max":1258,"o":"m 1258 104 l 1154 0 l 735 0 l 631 104 l 631 285 l 460 0 l 251 0 l 501 418 l 174 418 l 69 522 l 69 943 l 174 1047 l 593 1047 l 697 943 l 697 744 l 874 1040 l 1082 1040 l 836 629 l 1154 629 l 1258 525 l 1258 104 m 489 626 l 489 839 l 278 839 l 278 626 l 489 626 m 1050 208 l 1050 421 l 839 421 l 839 208 l 1050 208 "},"&":{"ha":1015,"x_min":69,"x_max":974,"o":"m 867 0 l 174 0 l 69 104 l 69 938 l 174 1042 l 558 1042 l 558 833 l 278 833 l 278 625 l 658 625 l 658 836 l 867 836 l 867 625 l 974 625 l 974 417 l 867 417 l 867 0 m 278 417 l 278 208 l 658 208 l 658 417 l 278 417 "},"'":{"ha":347,"x_min":69,"x_max":278,"o":"m 278 1042 l 278 764 l 69 764 l 69 1042 l 278 1042 "},"(":{"ha":447,"x_min":65,"x_max":378,"o":"m 378 -104 l 169 -104 l 65 0 l 65 1042 l 169 1146 l 378 1146 l 378 938 l 274 938 l 274 104 l 378 104 l 378 -104 "},")":{"ha":447,"x_min":64,"x_max":376,"o":"m 64 -104 l 64 104 l 168 104 l 168 938 l 64 938 l 64 1146 l 272 1146 l 376 1042 l 376 0 l 272 -104 l 64 -104 "},"*":{"ha":1126,"x_min":40,"x_max":1082,"o":"m 124 815 l 271 963 l 463 771 l 463 1043 l 671 1043 l 671 765 l 864 958 l 1011 811 l 826 626 l 1082 626 l 1082 418 l 815 418 l 1007 226 l 860 79 l 671 268 l 671 1 l 463 1 l 463 263 l 275 75 l 128 222 l 324 418 l 40 418 l 40 626 l 313 626 l 124 815 "},"+":{"ha":1113,"x_min":36,"x_max":1078,"o":"m 36 417 l 36 625 l 458 625 l 458 1042 l 667 1042 l 667 625 l 1078 625 l 1078 417 l 667 417 l 667 0 l 458 0 l 458 417 l 36 417 "},",":{"ha":347,"x_min":69,"x_max":278,"o":"m 278 0 l 174 -104 l 174 0 l 69 0 l 69 208 l 278 208 l 278 0 "},"-":{"ha":492,"x_min":36,"x_max":458,"o":"m 36 417 l 36 625 l 458 625 l 458 417 l 36 417 "},".":{"ha":347,"x_min":69,"x_max":278,"o":"m 278 0 l 69 0 l 69 208 l 278 208 l 278 0 "},"/":{"ha":449,"x_min":21,"x_max":438,"o":"m 438 1042 l 229 0 l 21 0 l 229 1042 l 438 1042 "},":":{"ha":347,"x_min":69,"x_max":278,"o":"m 278 625 l 69 625 l 69 833 l 278 833 l 278 625 m 278 0 l 69 0 l 69 208 l 278 208 l 278 0 "},";":{"ha":347,"x_min":69,"x_max":278,"o":"m 278 0 l 174 -104 l 174 0 l 69 0 l 69 208 l 278 208 l 278 0 m 278 625 l 69 625 l 69 833 l 278 833 l 278 625 "},"<":{"ha":600,"x_min":43,"x_max":525,"o":"m 43 474 l 525 69 l 525 351 l 264 547 l 525 696 l 525 974 l 43 621 l 43 474 "},"=":{"ha":1181,"x_min":69,"x_max":1111,"o":"m 69 621 l 69 829 l 1111 829 l 1111 621 l 69 621 m 69 207 l 69 415 l 1111 415 l 1111 207 l 69 207 "},">":{"ha":600,"x_min":69,"x_max":551,"o":"m 551 474 l 69 69 l 69 351 l 331 547 l 69 696 l 69 974 l 551 621 l 551 474 "},"?":{"ha":764,"x_min":69,"x_max":694,"o":"m 694 521 l 590 417 l 278 417 l 278 313 l 69 313 l 69 521 l 174 625 l 486 625 l 486 833 l 69 833 l 69 1042 l 590 1042 l 694 938 l 694 521 m 278 0 l 69 0 l 69 208 l 278 208 l 278 0 "},"@":{"ha":1110,"x_min":69,"x_max":1043,"o":"m 1043 1007 l 1043 1 l 521 1 l 417 106 l 417 594 l 521 699 l 835 699 l 835 903 l 278 903 l 278 -143 l 69 0 l 69 1007 l 174 1111 l 939 1111 l 1043 1007 m 625 490 l 625 211 l 835 211 l 835 490 l 625 490 "},"A":{"ha":1172,"x_min":69,"x_max":1103,"o":"m 1103 0 l 894 0 l 894 417 l 278 417 l 278 0 l 69 0 l 69 938 l 174 1042 l 999 1042 l 1103 938 l 1103 0 m 894 625 l 894 833 l 278 833 l 278 625 l 894 625 "},"B":{"ha":1172,"x_min":69,"x_max":1103,"o":"m 1103 104 l 999 0 l 69 0 l 69 1042 l 999 1042 l 1103 938 l 1103 625 l 999 521 l 1103 417 l 1103 104 m 894 208 l 894 417 l 278 417 l 278 208 l 894 208 m 894 625 l 894 833 l 278 833 l 278 625 l 894 625 "},"C":{"ha":1172,"x_min":69,"x_max":1103,"o":"m 1103 0 l 174 0 l 69 104 l 69 938 l 174 1042 l 1103 1043 l 1103 833 l 278 833 l 278 208 l 1103 208 l 1103 0 "},"D":{"ha":1172,"x_min":69,"x_max":1103,"o":"m 1103 104 l 999 0 l 69 0 l 69 1042 l 999 1042 l 1103 938 l 1103 104 m 894 208 l 894 833 l 278 833 l 278 208 l 894 208 "},"E":{"ha":1174,"x_min":69,"x_max":1104,"o":"m 1103 0 l 174 0 l 69 104 l 69 938 l 174 1042 l 1103 1042 l 1103 833 l 278 833 l 278 625 l 1104 625 l 1104 417 l 278 417 l 278 208 l 1103 208 l 1103 0 "},"F":{"ha":1174,"x_min":69,"x_max":1104,"o":"m 278 417 l 278 0 l 69 0 l 69 938 l 174 1042 l 1103 1042 l 1103 833 l 278 833 l 278 625 l 1104 625 l 1104 417 l 278 417 "},"G":{"ha":1076,"x_min":69,"x_max":1007,"o":"m 1007 0 l 174 0 l 69 104 l 69 938 l 174 1042 l 1007 1042 l 1007 833 l 278 833 l 278 208 l 799 208 l 799 417 l 488 417 l 488 625 l 1007 625 l 1007 0 "},"H":{"ha":1178,"x_min":69,"x_max":1108,"o":"m 1108 0 l 900 0 l 900 417 l 278 417 l 278 0 l 69 0 l 69 1042 l 278 1042 l 278 625 l 900 625 l 900 1042 l 1108 1042 l 1108 0 "},"I":{"ha":347,"x_min":69,"x_max":278,"o":"m 278 0 l 69 0 l 69 1042 l 278 1042 l 278 0 "},"J":{"ha":871,"x_min":69,"x_max":801,"o":"m 801 104 l 697 0 l 69 0 l 69 208 l 593 208 l 593 1042 l 801 1042 l 801 104 "},"K":{"ha":1178,"x_min":69,"x_max":1108,"o":"m 1108 0 l 900 0 l 900 417 l 278 417 l 278 0 l 69 0 l 69 1042 l 278 1042 l 278 625 l 900 625 l 900 1042 l 1108 1042 l 1108 625 l 1004 521 l 1108 417 l 1108 0 "},"L":{"ha":768,"x_min":69,"x_max":699,"o":"m 699 0 l 174 0 l 69 104 l 69 1042 l 278 1042 l 278 208 l 699 208 l 699 0 "},"M":{"ha":1178,"x_min":69,"x_max":1108,"o":"m 1108 0 l 900 0 l 900 833 l 692 833 l 692 0 l 483 0 l 483 833 l 278 833 l 278 0 l 69 0 l 69 1042 l 1004 1042 l 1108 938 l 1108 0 "},"N":{"ha":1178,"x_min":69,"x_max":1108,"o":"m 1108 -3 l 900 -3 l 900 833 l 278 833 l 278 0 l 69 0 l 69 1042 l 1004 1042 l 1108 938 l 1108 -3 "},"O":{"ha":1174,"x_min":69,"x_max":1104,"o":"m 1104 104 l 1000 0 l 174 0 l 69 104 l 69 938 l 174 1042 l 1000 1042 l 1104 938 l 1104 104 m 896 208 l 896 833 l 278 833 l 278 208 l 896 208 "},"P":{"ha":1174,"x_min":69,"x_max":1104,"o":"m 1104 521 l 1000 417 l 278 417 l 278 0 l 69 0 l 69 1042 l 1000 1042 l 1104 938 l 1104 521 m 896 625 l 896 833 l 278 833 l 278 625 l 896 625 "},"Q":{"ha":1172,"x_min":69,"x_max":1103,"o":"m 1103 104 l 999 0 l 692 0 l 692 -204 l 483 -204 l 483 0 l 174 0 l 69 104 l 69 938 l 174 1042 l 999 1042 l 1103 938 l 1103 104 m 894 208 l 894 833 l 278 833 l 278 208 l 894 208 "},"R":{"ha":1174,"x_min":69,"x_max":1104,"o":"m 1104 0 l 896 0 l 896 417 l 278 417 l 278 0 l 69 0 l 69 1042 l 1000 1042 l 1104 938 l 1104 625 l 1000 521 l 1104 417 l 1104 0 m 896 625 l 896 833 l 278 833 l 278 625 l 896 625 "},"S":{"ha":1168,"x_min":69,"x_max":1099,"o":"m 1099 104 l 994 0 l 69 0 l 69 208 l 890 208 l 890 417 l 174 417 l 69 521 l 69 938 l 174 1042 l 1099 1042 l 1099 833 l 278 833 l 278 625 l 994 625 l 1099 521 l 1099 104 "},"T":{"ha":1178,"x_min":69,"x_max":1108,"o":"m 1108 835 l 699 835 l 699 1 l 490 1 l 490 835 l 69 833 l 69 1042 l 1108 1043 l 1108 835 "},"U":{"ha":1176,"x_min":69,"x_max":1107,"o":"m 1107 104 l 1003 0 l 174 0 l 69 104 l 69 1042 l 278 1042 l 278 208 l 899 208 l 899 1042 l 1107 1042 l 1107 104 "},"V":{"ha":968,"x_min":69,"x_max":899,"o":"m 899 104 l 794 0 l 69 0 l 69 1042 l 278 1042 l 278 208 l 690 208 l 690 1042 l 899 1042 l 899 104 "},"W":{"ha":1179,"x_min":69,"x_max":1110,"o":"m 69 1042 l 278 1042 l 278 208 l 486 208 l 486 1042 l 694 1042 l 694 208 l 901 208 l 901 1042 l 1110 1042 l 1110 0 l 174 0 l 69 104 l 69 1042 "},"X":{"ha":1172,"x_min":69,"x_max":1103,"o":"m 1103 0 l 894 0 l 894 417 l 278 417 l 278 0 l 69 0 l 69 417 l 174 521 l 69 625 l 69 1042 l 278 1042 l 278 625 l 894 625 l 894 1042 l 1103 1042 l 1103 625 l 999 521 l 1103 417 l 1103 0 "},"Y":{"ha":1169,"x_min":69,"x_max":1100,"o":"m 1100 521 l 996 417 l 694 417 l 694 0 l 486 0 l 486 417 l 174 417 l 69 521 l 69 1042 l 278 1042 l 278 625 l 892 625 l 892 1042 l 1100 1042 l 1100 521 "},"Z":{"ha":1174,"x_min":69,"x_max":1104,"o":"m 1104 0 l 69 0 l 69 521 l 174 625 l 896 625 l 896 833 l 69 833 l 69 1042 l 1104 1042 l 1104 521 l 1000 417 l 278 417 l 278 208 l 1104 208 l 1104 0 "},"[":{"ha":451,"x_min":69,"x_max":382,"o":"m 382 -104 l 69 -104 l 69 1146 l 382 1146 l 382 938 l 278 938 l 278 104 l 382 104 l 382 -104 "},"\\":{"ha":451,"x_min":15,"x_max":432,"o":"m 432 0 l 224 0 l 15 1042 l 224 1042 l 432 0 "},"]":{"ha":451,"x_min":69,"x_max":382,"o":"m 382 -104 l 69 -104 l 69 104 l 174 104 l 174 938 l 69 938 l 69 1146 l 382 1146 l 382 -104 "},"^":{"ha":625,"x_min":19,"x_max":608,"o":"m 388 976 l 608 756 l 461 608 l 314 756 l 167 608 l 19 756 l 240 976 l 388 976 "},"_":{"ha":833,"x_min":0,"x_max":833,"o":"m 833 0 l 833 -208 l 0 -208 l 0 0 l 833 0 "},"`":{"ha":903,"x_min":321,"x_max":581,"o":"m 425 1375 l 581 1218 l 476 1114 l 321 1271 l 425 1375 "},"a":{"ha":904,"x_min":69,"x_max":832,"o":"m 832 0 l 624 0 l 624 417 l 278 417 l 278 0 l 69 0 l 69 938 l 174 1042 l 726 1042 l 832 938 l 832 0 m 624 625 l 624 833 l 278 833 l 278 625 l 624 625 "},"b":{"ha":904,"x_min":69,"x_max":833,"o":"m 833 104 l 729 0 l 69 0 l 69 1042 l 729 1042 l 833 938 l 833 625 l 729 521 l 833 417 l 833 104 m 625 208 l 625 417 l 278 417 l 278 208 l 625 208 m 625 625 l 625 833 l 278 833 l 278 625 l 625 625 "},"c":{"ha":904,"x_min":69,"x_max":832,"o":"m 832 0 l 174 0 l 69 104 l 69 938 l 174 1042 l 832 1042 l 832 833 l 278 833 l 278 208 l 832 208 l 832 0 "},"d":{"ha":907,"x_min":69,"x_max":838,"o":"m 838 104 l 733 0 l 69 0 l 69 1042 l 733 1042 l 838 938 l 838 104 m 629 208 l 629 833 l 278 833 l 278 208 l 629 208 "},"e":{"ha":903,"x_min":69,"x_max":831,"o":"m 829 0 l 174 0 l 69 104 l 69 938 l 174 1042 l 829 1042 l 829 833 l 278 833 l 278 625 l 831 625 l 831 417 l 278 417 l 278 208 l 829 208 l 829 0 "},"f":{"ha":903,"x_min":69,"x_max":828,"o":"m 278 417 l 278 0 l 69 0 l 69 938 l 174 1042 l 826 1043 l 826 833 l 278 833 l 278 625 l 828 625 l 828 417 l 278 417 "},"g":{"ha":903,"x_min":69,"x_max":829,"o":"m 829 0 l 174 0 l 69 104 l 69 938 l 174 1042 l 829 1042 l 829 833 l 278 833 l 278 208 l 621 208 l 621 417 l 451 417 l 451 625 l 829 625 l 829 0 "},"h":{"ha":907,"x_min":69,"x_max":828,"o":"m 828 0 l 619 0 l 619 417 l 278 417 l 278 0 l 69 0 l 69 1042 l 278 1042 l 278 625 l 619 625 l 619 1042 l 828 1042 l 828 0 "},"i":{"ha":347,"x_min":69,"x_max":278,"o":"m 278 0 l 69 0 l 69 1042 l 278 1042 l 278 0 "},"j":{"ha":625,"x_min":69,"x_max":550,"o":"m 550 104 l 446 0 l 69 0 l 69 208 l 342 208 l 342 1042 l 550 1042 l 550 104 "},"k":{"ha":904,"x_min":69,"x_max":832,"o":"m 832 -1 l 624 -1 l 624 417 l 278 417 l 278 0 l 69 0 l 69 1042 l 278 1042 l 278 625 l 624 625 l 624 1040 l 832 1040 l 832 625 l 728 521 l 832 417 l 832 -1 "},"l":{"ha":624,"x_min":69,"x_max":549,"o":"m 549 0 l 174 0 l 69 104 l 69 1042 l 278 1042 l 278 208 l 549 208 l 549 0 "},"m":{"ha":1043,"x_min":69,"x_max":974,"o":"m 974 0 l 765 0 l 765 833 l 626 833 l 626 0 l 418 0 l 418 833 l 278 833 l 278 0 l 69 0 l 69 1042 l 869 1042 l 974 938 l 974 0 "},"n":{"ha":904,"x_min":69,"x_max":833,"o":"m 833 -1 l 625 0 l 625 833 l 278 833 l 278 0 l 69 0 l 69 1042 l 729 1042 l 833 938 l 833 -1 "},"o":{"ha":904,"x_min":69,"x_max":835,"o":"m 835 104 l 731 0 l 174 0 l 69 104 l 69 938 l 174 1042 l 731 1042 l 835 938 l 835 104 m 626 208 l 626 833 l 278 833 l 278 208 l 626 208 "},"p":{"ha":903,"x_min":69,"x_max":832,"o":"m 832 521 l 728 417 l 278 417 l 278 0 l 69 0 l 69 1042 l 728 1042 l 832 938 l 832 521 m 624 625 l 624 833 l 278 833 l 278 625 l 624 625 "},"q":{"ha":906,"x_min":69,"x_max":835,"o":"m 835 104 l 731 0 l 563 0 l 563 -204 l 354 -204 l 354 0 l 174 0 l 69 104 l 69 938 l 174 1042 l 731 1042 l 835 938 l 835 104 m 626 208 l 626 833 l 278 833 l 278 208 l 626 208 "},"r":{"ha":903,"x_min":69,"x_max":833,"o":"m 833 0 l 625 0 l 625 417 l 278 417 l 278 0 l 69 0 l 69 1042 l 729 1042 l 833 938 l 833 625 l 729 521 l 833 417 l 833 0 m 625 625 l 625 833 l 278 833 l 278 625 l 625 625 "},"s":{"ha":903,"x_min":69,"x_max":829,"o":"m 829 104 l 725 0 l 69 0 l 69 208 l 621 208 l 621 417 l 174 417 l 69 521 l 69 938 l 174 1042 l 829 1042 l 829 833 l 278 833 l 278 625 l 725 625 l 829 521 l 829 104 "},"t":{"ha":904,"x_min":69,"x_max":831,"o":"m 831 833 l 560 833 l 560 0 l 351 0 l 351 833 l 69 833 l 69 1042 l 831 1043 l 831 833 "},"u":{"ha":903,"x_min":69,"x_max":836,"o":"m 836 104 l 732 0 l 174 0 l 69 104 l 69 1042 l 278 1042 l 278 208 l 628 208 l 628 1042 l 836 1042 l 836 104 "},"v":{"ha":832,"x_min":69,"x_max":756,"o":"m 756 104 l 651 0 l 69 0 l 69 1042 l 278 1042 l 278 208 l 547 208 l 547 1042 l 756 1042 l 756 104 "},"w":{"ha":1047,"x_min":69,"x_max":975,"o":"m 69 1042 l 278 1042 l 278 208 l 419 208 l 419 1042 l 628 1042 l 628 208 l 767 208 l 767 1042 l 975 1042 l 975 0 l 174 0 l 69 104 l 69 1042 "},"x":{"ha":904,"x_min":69,"x_max":836,"o":"m 836 0 l 628 0 l 628 417 l 278 417 l 278 0 l 69 0 l 69 417 l 174 521 l 69 625 l 69 1042 l 278 1042 l 278 625 l 628 625 l 628 1042 l 836 1042 l 836 625 l 732 521 l 836 417 l 836 0 "},"y":{"ha":904,"x_min":69,"x_max":838,"o":"m 838 521 l 733 417 l 554 417 l 554 0 l 346 0 l 346 417 l 174 417 l 69 521 l 69 1042 l 278 1042 l 278 625 l 629 625 l 629 1042 l 838 1042 l 838 521 "},"z":{"ha":904,"x_min":69,"x_max":833,"o":"m 833 0 l 69 0 l 69 521 l 174 625 l 625 625 l 625 833 l 69 833 l 69 1042 l 833 1042 l 833 521 l 729 417 l 278 417 l 278 208 l 833 208 l 833 0 "},"{":{"ha":556,"x_min":69,"x_max":486,"o":"m 486 -104 l 278 -104 l 174 0 l 174 417 l 69 521 l 174 625 l 174 1042 l 278 1146 l 486 1146 l 486 938 l 382 938 l 382 625 l 278 521 l 382 417 l 382 104 l 486 104 l 486 -104 "},"|":{"ha":347,"x_min":69,"x_max":278,"o":"m 278 -142 l 69 -142 l 69 1181 l 278 1181 l 278 -142 "},"}":{"ha":556,"x_min":69,"x_max":486,"o":"m 486 521 l 382 417 l 382 0 l 278 -104 l 69 -104 l 69 104 l 174 104 l 174 417 l 278 521 l 174 625 l 174 938 l 69 938 l 69 1146 l 278 1146 l 382 1042 l 382 625 l 486 521 "},"~":{"ha":839,"x_min":19,"x_max":828,"o":"m 828 754 l 681 607 l 533 753 l 388 607 l 240 607 l 19 828 l 167 975 l 313 828 l 460 975 l 607 975 l 828 754 "},"‚":{"ha":347,"x_min":69,"x_max":278,"o":"m 278 138 l 278 -140 l 69 -140 l 69 138 l 278 138 "},"ƒ":{"ha":921,"x_min":69,"x_max":853,"o":"m 644 625 l 644 833 l 278 833 l 278 -203 l 69 -203 l 69 1042 l 749 1042 l 853 938 l 853 625 l 749 521 l 853 417 l 853 104 l 749 0 l 358 0 l 358 208 l 644 208 l 644 417 l 429 417 l 429 625 l 644 625 "},"„":{"ha":624,"x_min":69,"x_max":556,"o":"m 278 138 l 278 -140 l 69 -140 l 69 138 l 278 138 m 556 138 l 556 -140 l 347 -140 l 347 138 l 556 138 "},"…":{"ha":1043,"x_min":69,"x_max":976,"o":"m 278 0 l 69 0 l 69 208 l 278 208 l 278 0 m 976 -1 l 768 -1 l 768 207 l 976 207 l 976 -1 m 631 0 l 422 0 l 422 208 l 631 208 l 631 0 "},"†":{"ha":832,"x_min":35,"x_max":797,"o":"m 519 -139 l 311 -139 l 311 557 l 35 557 l 35 765 l 311 765 l 311 1042 l 519 1042 l 519 765 l 797 765 l 797 557 l 519 557 l 519 -139 "},"‡":{"ha":832,"x_min":35,"x_max":797,"o":"m 35 143 l 35 351 l 311 351 l 311 557 l 35 557 l 35 765 l 311 765 l 311 1042 l 519 1042 l 519 765 l 797 765 l 797 557 l 519 557 l 519 351 l 797 351 l 797 143 l 519 143 l 519 -139 l 311 -139 l 311 143 l 35 143 "},"ˆ":{"ha":1175,"x_min":379,"x_max":796,"o":"m 640 1375 l 796 1218 l 692 1114 l 588 1218 l 483 1114 l 379 1218 l 536 1375 l 640 1375 "},"‰":{"ha":1965,"x_min":69,"x_max":1886,"o":"m 1886 103 l 1782 -1 l 1363 -1 l 1258 103 l 1258 104 l 1154 0 l 735 0 l 631 104 l 631 285 l 460 0 l 251 0 l 501 418 l 174 418 l 69 522 l 69 943 l 174 1047 l 593 1047 l 697 943 l 697 744 l 874 1040 l 1082 1040 l 836 629 l 1154 629 l 1258 525 l 1258 524 l 1363 628 l 1782 628 l 1886 524 l 1886 103 m 1678 207 l 1678 419 l 1467 419 l 1467 207 l 1678 207 m 1050 208 l 1050 421 l 839 421 l 839 208 l 1050 208 m 489 626 l 489 839 l 278 839 l 278 626 l 489 626 "},"Š":{"ha":1168,"x_min":69,"x_max":1099,"o":"m 1099 104 l 994 0 l 69 0 l 69 208 l 890 208 l 890 417 l 174 417 l 69 521 l 69 938 l 174 1042 l 1099 1042 l 1099 833 l 278 833 l 278 625 l 994 625 l 1099 521 l 1099 104 m 640 1114 l 536 1114 l 379 1271 l 483 1375 l 588 1271 l 692 1375 l 796 1271 l 640 1114 "},"‹":{"ha":469,"x_min":50,"x_max":418,"o":"m 50 451 l 271 231 l 418 378 l 271 525 l 418 672 l 271 819 l 50 599 l 50 451 "},"Œ":{"ha":1997,"x_min":69,"x_max":1929,"o":"m 1928 -1 l 174 0 l 69 104 l 69 938 l 174 1042 l 1928 1040 l 1928 832 l 1104 832 l 1104 624 l 1929 624 l 1929 415 l 1104 415 l 1104 207 l 1928 207 l 1928 -1 m 278 833 l 278 208 l 894 206 l 894 831 l 278 833 "},"‘":{"ha":347,"x_min":69,"x_max":278,"o":"m 278 1042 l 278 764 l 69 764 l 69 1042 l 278 1042 "},"’":{"ha":347,"x_min":69,"x_max":278,"o":"m 278 1042 l 278 764 l 69 764 l 69 1042 l 278 1042 "},"“":{"ha":624,"x_min":69,"x_max":556,"o":"m 278 1042 l 278 764 l 69 764 l 69 1042 l 278 1042 m 556 1042 l 556 764 l 347 764 l 347 1042 l 556 1042 "},"”":{"ha":624,"x_min":69,"x_max":556,"o":"m 278 1042 l 278 764 l 69 764 l 69 1042 l 278 1042 m 556 1042 l 556 764 l 347 764 l 347 1042 l 556 1042 "},"•":{"ha":625,"x_min":69,"x_max":551,"o":"m 449 351 l 171 351 l 69 419 l 69 697 l 172 765 l 450 765 l 551 697 l 551 419 l 449 351 "},"–":{"ha":972,"x_min":69,"x_max":904,"o":"m 904 625 l 903 417 l 69 417 l 69 625 l 904 625 "},"—":{"ha":1043,"x_min":69,"x_max":976,"o":"m 976 625 l 975 417 l 69 417 l 69 625 l 976 625 "},"˜":{"ha":903,"x_min":165,"x_max":738,"o":"m 426 1114 l 322 1114 l 165 1271 l 267 1375 l 374 1269 l 478 1375 l 582 1375 l 738 1218 l 633 1114 l 529 1218 l 426 1114 "},"™":{"ha":1413,"x_min":36,"x_max":1363,"o":"m 1363 938 l 1363 417 l 1154 417 l 1154 833 l 1082 833 l 1082 417 l 874 417 l 874 833 l 801 833 l 801 417 l 593 417 l 593 1042 l 1258 1042 l 1363 938 m 36 833 l 36 1042 l 522 1043 l 522 833 l 388 833 l 388 417 l 179 417 l 179 833 l 36 833 "},"š":{"ha":903,"x_min":69,"x_max":829,"o":"m 829 104 l 725 0 l 69 0 l 69 208 l 621 208 l 621 417 l 174 417 l 69 521 l 69 938 l 174 1042 l 829 1042 l 829 833 l 278 833 l 278 625 l 725 625 l 829 521 l 829 104 m 504 1114 l 400 1114 l 243 1271 l 347 1375 l 451 1271 l 556 1375 l 660 1271 l 504 1114 "},"›":{"ha":469,"x_min":51,"x_max":419,"o":"m 419 451 l 199 231 l 51 378 l 199 525 l 51 672 l 199 819 l 419 599 l 419 451 "},"œ":{"ha":1457,"x_min":69,"x_max":1389,"o":"m 1388 0 l 174 0 l 69 104 l 69 938 l 174 1042 l 1388 1042 l 1388 833 l 836 833 l 836 625 l 1389 625 l 1389 417 l 836 417 l 836 208 l 1388 208 l 1388 0 m 626 208 l 626 833 l 278 833 l 278 208 l 626 208 "},"Ÿ":{"ha":1169,"x_min":69,"x_max":1100,"o":"m 1100 521 l 996 417 l 694 417 l 694 0 l 486 0 l 486 417 l 174 417 l 69 521 l 69 1042 l 278 1042 l 278 625 l 892 625 l 892 1042 l 1100 1042 l 1100 521 m 894 1111 l 686 1111 l 686 1319 l 894 1319 l 894 1111 m 489 1111 l 281 1111 l 281 1319 l 489 1319 l 489 1111 "},"¡":{"ha":347,"x_min":69,"x_max":278,"o":"m 69 521 l 278 521 l 278 -208 l 69 -208 l 69 521 m 69 833 l 278 833 l 278 625 l 69 625 l 69 833 "},"¢":{"ha":689,"x_min":69,"x_max":629,"o":"m 278 314 l 629 314 l 629 106 l 486 106 l 486 1 l 278 1 l 278 106 l 165 106 l 69 210 l 69 836 l 174 940 l 278 940 l 278 1044 l 486 1044 l 486 940 l 628 940 l 628 732 l 278 732 l 278 314 "},"£":{"ha":808,"x_min":43,"x_max":768,"o":"m 43 560 l 43 768 l 182 768 l 182 938 l 286 1042 l 701 1042 l 701 833 l 390 833 l 390 768 l 599 768 l 599 560 l 390 560 l 390 481 l 599 481 l 599 272 l 390 272 l 390 207 l 768 207 l 768 -1 l 44 -1 l 44 207 l 182 207 l 182 272 l 43 272 l 43 481 l 182 481 l 182 560 l 43 560 "},"¤":{"ha":765,"x_min":51,"x_max":725,"o":"m 51 560 l 51 768 l 139 768 l 139 938 l 243 1042 l 724 1042 l 724 833 l 347 833 l 347 768 l 607 768 l 607 560 l 347 560 l 347 481 l 607 481 l 607 272 l 347 272 l 347 207 l 725 207 l 725 -1 l 238 -1 l 139 113 l 139 272 l 51 272 l 51 481 l 139 481 l 139 560 l 51 560 "},"¥":{"ha":904,"x_min":69,"x_max":838,"o":"m 71 139 l 71 347 l 346 347 l 346 488 l 174 488 l 69 592 l 69 1042 l 278 1042 l 278 696 l 629 696 l 629 1042 l 838 1042 l 838 592 l 733 488 l 554 488 l 554 347 l 831 347 l 831 139 l 554 139 l 554 0 l 346 0 l 346 139 l 71 139 "},"¦":{"ha":347,"x_min":69,"x_max":278,"o":"m 278 -142 l 69 -142 l 69 417 l 278 417 l 278 -142 m 278 1181 l 278 694 l 69 694 l 69 1181 l 278 1181 "},"§":{"ha":903,"x_min":69,"x_max":829,"o":"m 829 -104 l 725 -208 l 69 -208 l 69 0 l 621 0 l 621 138 l 174 138 l 69 242 l 69 939 l 174 1043 l 829 1043 l 829 835 l 278 835 l 278 697 l 725 697 l 829 593 l 829 -104 m 621 483 l 278 483 l 278 346 l 621 346 l 621 483 "},"¨":{"ha":1175,"x_min":281,"x_max":894,"o":"m 489 1111 l 281 1111 l 281 1319 l 489 1319 l 489 1111 m 894 1111 l 686 1111 l 686 1319 l 894 1319 l 894 1111 "},"©":{"ha":1174,"x_min":69,"x_max":1104,"o":"m 1104 104 l 1000 0 l 174 0 l 69 104 l 69 938 l 174 1042 l 1000 1042 l 1104 938 l 1104 104 m 896 208 l 896 833 l 278 833 l 278 208 l 896 208 m 563 571 l 563 468 l 822 468 l 822 260 l 458 260 l 354 364 l 354 675 l 458 779 l 822 779 l 822 571 l 563 571 "},"ª":{"ha":1182,"x_min":69,"x_max":1113,"o":"m 1113 104 l 1008 0 l 174 0 l 69 104 l 69 938 l 174 1042 l 1008 1042 l 1113 938 l 1113 104 m 904 208 l 904 833 l 278 833 l 278 208 l 904 208 m 696 418 l 486 417 l 486 625 l 696 626 l 696 418 "},"«":{"ha":850,"x_min":50,"x_max":806,"o":"m 50 451 l 271 231 l 418 378 l 271 525 l 418 672 l 271 819 l 50 599 l 50 451 m 438 453 l 658 232 l 806 379 l 658 526 l 806 674 l 658 821 l 438 600 l 438 453 "},"¬":{"ha":1419,"x_min":43,"x_max":1379,"o":"m 475 313 l 475 553 l 558 553 l 558 313 l 475 313 m 847 172 l 535 172 l 563 235 l 824 235 l 722 488 l 718 488 l 718 553 l 790 553 l 790 740 l 475 740 l 475 975 l 329 975 l 329 488 l 140 488 l 140 64 l 890 64 l 847 172 m 1308 156 q 1144 251 1308 251 l 1007 251 l 1007 318 l 1160 318 q 1235 339 1203 318 q 1275 404 1275 364 q 1147 488 1275 488 l 788 488 l 964 63 l 1144 63 q 1308 156 1308 63 m 1379 146 q 1318 35 1379 74 q 1189 0 1265 0 l 75 0 l 75 551 l 264 551 l 264 975 l 110 975 l 110 897 l 43 897 l 54 1040 l 618 1040 l 618 975 l 546 975 l 546 807 l 858 807 l 858 551 l 1258 551 l 1258 678 l 1321 678 l 1321 488 l 1318 488 q 1344 407 1344 456 q 1268 288 1344 325 q 1379 146 1379 253 m 1256 850 l 1246 974 l 983 974 l 983 804 l 1122 804 l 1122 874 l 1188 874 l 1188 671 l 1122 671 l 1122 740 l 915 740 l 915 1039 l 1318 1039 l 1318 850 l 1256 850 "},"®":{"ha":1174,"x_min":69,"x_max":1104,"o":"m 1104 104 l 1000 0 l 174 0 l 69 104 l 69 938 l 174 1042 l 1000 1042 l 1104 938 l 1104 104 m 896 208 l 896 833 l 278 833 l 278 208 l 896 208 m 563 571 l 563 260 l 354 260 l 354 675 l 458 779 l 822 779 l 822 571 l 563 571 "},"¯":{"ha":903,"x_min":240,"x_max":663,"o":"m 240 1111 l 240 1319 l 663 1319 l 663 1111 l 240 1111 "},"°":{"ha":589,"x_min":72,"x_max":515,"o":"m 256 768 l 331 768 l 367 790 l 367 881 l 331 904 l 256 904 l 221 881 l 221 790 l 256 768 m 388 628 l 197 628 l 72 708 l 72 963 l 200 1042 l 390 1042 l 515 963 l 515 708 l 388 628 "},"±":{"ha":1182,"x_min":69,"x_max":1113,"o":"m 71 557 l 71 765 l 493 765 l 493 1042 l 701 1042 l 701 765 l 1113 765 l 1113 557 l 701 557 l 701 274 l 493 274 l 493 557 l 71 557 m 69 0 l 69 208 l 1111 208 l 1111 0 l 69 0 "},"²":{"ha":1174,"x_min":69,"x_max":1104,"o":"m 1104 0 l 69 0 l 69 521 l 174 625 l 896 625 l 896 833 l 69 833 l 69 1042 l 1000 1042 l 1104 938 l 1104 521 l 1000 417 l 278 417 l 278 208 l 1104 208 l 1104 0 "},"³":{"ha":1181,"x_min":69,"x_max":1111,"o":"m 1111 104 l 1007 0 l 72 0 l 72 208 l 903 208 l 903 417 l 69 417 l 69 625 l 903 625 l 903 833 l 72 833 l 72 1042 l 1007 1042 l 1111 938 l 1111 625 l 1007 521 l 1111 417 l 1111 104 "},"´":{"ha":903,"x_min":321,"x_max":581,"o":"m 476 1375 l 581 1271 l 425 1114 l 321 1218 l 476 1375 "},"µ":{"ha":1181,"x_min":69,"x_max":1111,"o":"m 1111 0 l 903 0 l 903 417 l 174 417 l 69 521 l 69 1042 l 278 1042 l 278 625 l 903 625 l 903 1042 l 1111 1042 l 1111 0 "},"¶":{"ha":903,"x_min":68,"x_max":831,"o":"m 279 -207 l 279 278 l 172 278 l 68 382 l 68 799 l 172 903 l 831 903 l 831 -206 l 622 -206 l 622 690 l 488 690 l 488 -207 l 279 -207 "},"·":{"ha":1176,"x_min":69,"x_max":1107,"o":"m 1107 104 l 1003 0 l 69 0 l 69 208 l 899 208 l 899 417 l 174 417 l 69 521 l 69 1042 l 1107 1042 l 1107 833 l 278 833 l 278 625 l 1003 625 l 1107 521 l 1107 104 "},"¸":{"ha":903,"x_min":347,"x_max":556,"o":"m 556 68 l 556 -210 l 347 -210 l 347 68 l 556 68 "},"¹":{"ha":1172,"x_min":69,"x_max":1103,"o":"m 69 938 l 174 1042 l 1103 1042 l 1103 833 l 278 833 l 278 625 l 999 625 l 1103 521 l 1103 104 l 999 0 l 174 0 l 69 104 l 69 938 m 278 417 l 278 208 l 894 208 l 894 417 l 278 417 "},"º":{"ha":763,"x_min":69,"x_max":697,"o":"m 697 446 l 593 342 l 174 342 l 69 446 l 69 867 l 174 971 l 593 971 l 697 867 l 697 446 m 489 550 l 489 763 l 278 763 l 278 550 l 489 550 m 72 65 l 72 274 l 692 274 l 692 65 l 72 65 "},"»":{"ha":850,"x_min":50,"x_max":806,"o":"m 806 451 l 585 231 l 438 378 l 585 525 l 438 672 l 585 819 l 806 599 l 806 451 m 418 453 l 197 232 l 50 379 l 197 526 l 50 674 l 197 821 l 418 600 l 418 453 "},"¼":{"ha":1165,"x_min":69,"x_max":1096,"o":"m 1096 1 l 888 1 l 888 835 l 69 833 l 69 1042 l 992 1043 l 1096 939 l 1096 1 "},"½":{"ha":1172,"x_min":69,"x_max":1103,"o":"m 1103 104 l 999 0 l 174 0 l 69 104 l 69 417 l 174 521 l 69 625 l 69 938 l 174 1042 l 999 1042 l 1103 938 l 1103 625 l 999 521 l 1103 417 l 1103 104 m 894 208 l 894 417 l 278 417 l 278 208 l 894 208 m 894 625 l 894 833 l 278 833 l 278 625 l 894 625 "},"¾":{"ha":1172,"x_min":69,"x_max":1103,"o":"m 1103 104 l 999 0 l 69 0 l 69 208 l 894 208 l 894 417 l 174 417 l 69 521 l 69 938 l 174 1042 l 999 1042 l 1103 938 l 1103 104 m 894 625 l 894 833 l 278 833 l 278 625 l 894 625 "},"¿":{"ha":764,"x_min":69,"x_max":694,"o":"m 69 313 l 174 417 l 486 417 l 486 521 l 694 521 l 694 313 l 590 208 l 278 208 l 278 0 l 694 0 l 694 -208 l 174 -208 l 69 -104 l 69 313 m 486 833 l 694 833 l 694 625 l 486 625 l 486 833 "},"À":{"ha":1172,"x_min":69,"x_max":1103,"o":"m 1103 0 l 894 0 l 894 417 l 278 417 l 278 0 l 69 0 l 69 938 l 174 1042 l 999 1042 l 1103 938 l 1103 0 m 894 625 l 894 833 l 278 833 l 278 625 l 894 625 m 561 1375 l 717 1218 l 613 1114 l 457 1271 l 561 1375 "},"Á":{"ha":1172,"x_min":69,"x_max":1103,"o":"m 1103 0 l 894 0 l 894 417 l 278 417 l 278 0 l 69 0 l 69 938 l 174 1042 l 999 1042 l 1103 938 l 1103 0 m 894 625 l 894 833 l 278 833 l 278 625 l 894 625 m 611 1375 l 715 1271 l 560 1114 l 456 1218 l 611 1375 "},"Â":{"ha":1172,"x_min":69,"x_max":1103,"o":"m 1103 0 l 894 0 l 894 417 l 278 417 l 278 0 l 69 0 l 69 938 l 174 1042 l 999 1042 l 1103 938 l 1103 0 m 894 625 l 894 833 l 278 833 l 278 625 l 894 625 m 640 1375 l 796 1218 l 692 1114 l 588 1218 l 483 1114 l 379 1218 l 536 1375 l 640 1375 "},"Ã":{"ha":1172,"x_min":69,"x_max":1103,"o":"m 1103 0 l 894 0 l 894 417 l 278 417 l 278 0 l 69 0 l 69 938 l 174 1042 l 999 1042 l 1103 938 l 1103 0 m 894 625 l 894 833 l 278 833 l 278 625 l 894 625 m 563 1114 l 458 1114 l 301 1271 l 403 1375 l 510 1269 l 614 1375 l 718 1375 l 874 1218 l 769 1114 l 665 1218 l 563 1114 "},"Ä":{"ha":1172,"x_min":69,"x_max":1103,"o":"m 1103 0 l 894 0 l 894 417 l 278 417 l 278 0 l 69 0 l 69 938 l 174 1042 l 999 1042 l 1103 938 l 1103 0 m 894 625 l 894 833 l 278 833 l 278 625 l 894 625 m 489 1111 l 281 1111 l 281 1319 l 489 1319 l 489 1111 m 894 1111 l 686 1111 l 686 1319 l 894 1319 l 894 1111 "},"Å":{"ha":1172,"x_min":69,"x_max":1103,"o":"m 1103 0 l 894 0 l 894 417 l 278 417 l 278 0 l 69 0 l 69 938 l 174 1042 l 999 1042 l 1103 938 l 1103 0 m 894 625 l 894 833 l 278 833 l 278 625 l 894 625 m 543 1218 l 649 1218 l 700 1250 l 700 1378 l 650 1411 l 543 1411 l 493 1378 l 493 1250 l 543 1218 m 686 1113 l 496 1113 l 371 1193 l 371 1447 l 499 1526 l 689 1526 l 814 1447 l 814 1193 l 686 1113 "},"Æ":{"ha":1997,"x_min":69,"x_max":1929,"o":"m 1928 0 l 894 0 l 894 417 l 278 417 l 278 0 l 69 0 l 69 938 l 174 1042 l 1928 1042 l 1928 833 l 1103 833 l 1103 625 l 1929 625 l 1929 417 l 1103 417 l 1103 208 l 1928 208 l 1928 0 m 894 625 l 894 833 l 278 833 l 278 625 l 894 625 "},"Ç":{"ha":1172,"x_min":69,"x_max":1103,"o":"m 1103 0 l 726 0 l 726 -204 l 518 -204 l 518 0 l 174 0 l 69 104 l 69 938 l 174 1042 l 1103 1043 l 1103 833 l 278 833 l 278 208 l 1103 208 l 1103 0 "},"È":{"ha":1174,"x_min":69,"x_max":1104,"o":"m 1103 0 l 174 0 l 69 104 l 69 938 l 174 1042 l 1103 1042 l 1103 833 l 278 833 l 278 625 l 1104 625 l 1104 417 l 278 417 l 278 208 l 1103 208 l 1103 0 m 601 1375 l 757 1218 l 653 1114 l 497 1271 l 601 1375 "},"É":{"ha":1174,"x_min":69,"x_max":1104,"o":"m 1103 0 l 174 0 l 69 104 l 69 938 l 174 1042 l 1103 1042 l 1103 833 l 278 833 l 278 625 l 1104 625 l 1104 417 l 278 417 l 278 208 l 1103 208 l 1103 0 m 683 1375 l 788 1271 l 632 1114 l 528 1218 l 683 1375 "},"Ê":{"ha":1174,"x_min":69,"x_max":1104,"o":"m 1103 0 l 174 0 l 69 104 l 69 938 l 174 1042 l 1103 1042 l 1103 833 l 278 833 l 278 625 l 1104 625 l 1104 417 l 278 417 l 278 208 l 1103 208 l 1103 0 m 640 1375 l 796 1218 l 692 1114 l 588 1218 l 483 1114 l 379 1218 l 536 1375 l 640 1375 "},"Ë":{"ha":1174,"x_min":69,"x_max":1104,"o":"m 1103 0 l 174 0 l 69 104 l 69 938 l 174 1042 l 1103 1042 l 1103 833 l 278 833 l 278 625 l 1104 625 l 1104 417 l 278 417 l 278 208 l 1103 208 l 1103 0 m 519 1111 l 311 1111 l 311 1319 l 519 1319 l 519 1111 m 925 1111 l 717 1111 l 717 1319 l 925 1319 l 925 1111 "},"Ì":{"ha":347,"x_min":43,"x_max":303,"o":"m 278 0 l 69 0 l 69 1042 l 278 1042 l 278 0 m 147 1375 l 303 1218 l 199 1114 l 43 1271 l 147 1375 "},"Í":{"ha":347,"x_min":42,"x_max":301,"o":"m 67 0 l 275 0 l 275 1042 l 67 1042 l 67 0 m 197 1375 l 42 1218 l 146 1114 l 301 1271 l 197 1375 "},"Î":{"ha":347,"x_min":-33,"x_max":383,"o":"m 278 0 l 69 0 l 69 1042 l 278 1042 l 278 0 m 228 1375 l 383 1218 l 279 1114 l 175 1218 l 71 1114 l -33 1218 l 124 1375 l 228 1375 "},"Ï":{"ha":347,"x_min":-71,"x_max":419,"o":"m 278 0 l 69 0 l 69 1042 l 278 1042 l 278 0 m 138 1111 l -71 1111 l -71 1319 l 138 1319 l 138 1111 m 419 1111 l 211 1111 l 211 1319 l 419 1319 l 419 1111 "},"Ð":{"ha":1269,"x_min":26,"x_max":1200,"o":"m 1200 104 l 1096 0 l 167 0 l 167 418 l 26 418 l 26 626 l 167 626 l 167 1042 l 1096 1042 l 1200 938 l 1200 104 m 726 626 l 725 418 l 375 418 l 375 208 l 992 208 l 992 833 l 375 833 l 375 626 l 726 626 "},"Ñ":{"ha":1178,"x_min":69,"x_max":1108,"o":"m 1108 -3 l 900 -3 l 900 833 l 278 833 l 278 0 l 69 0 l 69 1042 l 1004 1042 l 1108 938 l 1108 -3 m 563 1114 l 458 1114 l 301 1271 l 403 1375 l 510 1269 l 614 1375 l 718 1375 l 874 1218 l 769 1114 l 665 1218 l 563 1114 "},"Ò":{"ha":1174,"x_min":69,"x_max":1104,"o":"m 1104 104 l 1000 0 l 174 0 l 69 104 l 69 938 l 174 1042 l 1000 1042 l 1104 938 l 1104 104 m 896 208 l 896 833 l 278 833 l 278 208 l 896 208 m 561 1375 l 717 1218 l 613 1114 l 457 1271 l 561 1375 "},"Ó":{"ha":1174,"x_min":69,"x_max":1104,"o":"m 1104 104 l 1000 0 l 174 0 l 69 104 l 69 938 l 174 1042 l 1000 1042 l 1104 938 l 1104 104 m 896 208 l 896 833 l 278 833 l 278 208 l 896 208 m 611 1375 l 715 1271 l 560 1114 l 456 1218 l 611 1375 "},"Ô":{"ha":1174,"x_min":69,"x_max":1104,"o":"m 1104 103 l 1000 -1 l 174 0 l 69 104 l 69 938 l 174 1042 l 1000 1040 l 1104 936 l 1104 103 m 896 207 l 896 832 l 278 833 l 278 208 l 896 207 m 640 1375 l 796 1218 l 692 1114 l 588 1218 l 483 1114 l 379 1218 l 536 1375 l 640 1375 "},"Õ":{"ha":1174,"x_min":69,"x_max":1104,"o":"m 1104 104 l 1000 0 l 174 0 l 69 104 l 69 938 l 174 1042 l 1000 1042 l 1104 938 l 1104 104 m 896 208 l 896 833 l 278 833 l 278 208 l 896 208 m 563 1114 l 458 1114 l 301 1271 l 403 1375 l 510 1269 l 614 1375 l 718 1375 l 874 1218 l 769 1114 l 665 1218 l 563 1114 "},"Ö":{"ha":1174,"x_min":69,"x_max":1104,"o":"m 1104 103 l 1000 -1 l 174 0 l 69 104 l 69 938 l 174 1042 l 1000 1040 l 1104 936 l 1104 103 m 896 207 l 896 832 l 278 833 l 278 208 l 896 207 m 489 1111 l 281 1111 l 281 1319 l 489 1319 l 489 1111 m 894 1111 l 686 1111 l 686 1319 l 894 1319 l 894 1111 "},"×":{"ha":964,"x_min":40,"x_max":928,"o":"m 40 815 l 188 963 l 486 664 l 781 958 l 928 811 l 633 517 l 924 226 l 776 79 l 486 369 l 192 75 l 44 222 l 339 517 l 40 815 "},"Ø":{"ha":1174,"x_min":69,"x_max":1104,"o":"m 1104 104 l 1000 0 l 174 0 l 69 104 l 69 938 l 174 1042 l 1000 1042 l 1104 938 l 1104 104 m 896 208 l 896 833 l 760 833 l 635 208 l 896 208 m 278 833 l 278 208 l 426 208 l 551 833 l 278 833 "},"Ù":{"ha":1176,"x_min":69,"x_max":1107,"o":"m 1107 104 l 1003 0 l 174 0 l 69 104 l 69 1042 l 278 1042 l 278 208 l 899 208 l 899 1042 l 1107 1042 l 1107 104 m 561 1375 l 717 1218 l 613 1114 l 457 1271 l 561 1375 "},"Ú":{"ha":1176,"x_min":69,"x_max":1107,"o":"m 1107 104 l 1003 0 l 174 0 l 69 104 l 69 1042 l 278 1042 l 278 208 l 899 208 l 899 1042 l 1107 1042 l 1107 104 m 611 1375 l 715 1271 l 560 1114 l 456 1218 l 611 1375 "},"Û":{"ha":1176,"x_min":69,"x_max":1107,"o":"m 1107 104 l 1003 0 l 174 0 l 69 104 l 69 1042 l 278 1042 l 278 208 l 899 208 l 899 1042 l 1107 1042 l 1107 104 m 640 1375 l 796 1218 l 692 1114 l 588 1218 l 483 1114 l 379 1218 l 536 1375 l 640 1375 "},"Ü":{"ha":1176,"x_min":69,"x_max":1107,"o":"m 1107 104 l 1003 0 l 174 0 l 69 104 l 69 1042 l 278 1042 l 278 208 l 899 208 l 899 1042 l 1107 1042 l 1107 104 m 489 1111 l 281 1111 l 281 1319 l 489 1319 l 489 1111 m 894 1111 l 686 1111 l 686 1319 l 894 1319 l 894 1111 "},"Ý":{"ha":1169,"x_min":69,"x_max":1100,"o":"m 1100 521 l 996 417 l 694 417 l 694 0 l 486 0 l 486 417 l 174 417 l 69 521 l 69 1042 l 278 1042 l 278 625 l 892 625 l 892 1042 l 1100 1042 l 1100 521 m 614 1369 l 718 1265 l 563 1108 l 458 1213 l 614 1369 "},"Þ":{"ha":1174,"x_min":69,"x_max":1101,"o":"m 278 1042 l 278 833 l 997 833 l 1101 729 l 1101 313 l 997 208 l 278 208 l 278 0 l 69 0 l 69 1042 l 278 1042 m 893 417 l 893 625 l 278 625 l 278 417 l 893 417 "},"ß":{"ha":1806,"x_min":69,"x_max":1735,"o":"m 829 104 l 725 0 l 69 0 l 69 208 l 621 208 l 621 417 l 174 417 l 69 521 l 69 938 l 174 1042 l 829 1042 l 829 833 l 278 833 l 278 625 l 725 625 l 829 521 l 829 104 m 1735 104 l 1631 0 l 975 0 l 975 208 l 1526 208 l 1526 417 l 1079 417 l 975 521 l 975 938 l 1079 1042 l 1735 1042 l 1735 833 l 1183 833 l 1183 625 l 1631 625 l 1735 521 l 1735 104 "},"à":{"ha":904,"x_min":69,"x_max":832,"o":"m 832 0 l 624 0 l 624 417 l 278 417 l 278 0 l 69 0 l 69 938 l 174 1042 l 728 1042 l 832 938 l 832 0 m 624 625 l 624 833 l 278 833 l 278 625 l 624 625 m 425 1375 l 581 1218 l 476 1114 l 321 1271 l 425 1375 "},"á":{"ha":904,"x_min":69,"x_max":832,"o":"m 832 0 l 624 0 l 624 417 l 278 417 l 278 0 l 69 0 l 69 938 l 174 1042 l 728 1042 l 832 938 l 832 0 m 624 625 l 624 833 l 278 833 l 278 625 l 624 625 m 476 1375 l 581 1271 l 425 1114 l 321 1218 l 476 1375 "},"â":{"ha":904,"x_min":69,"x_max":832,"o":"m 832 0 l 624 0 l 624 417 l 278 417 l 278 0 l 69 0 l 69 938 l 174 1042 l 728 1042 l 832 938 l 832 0 m 624 625 l 624 833 l 278 833 l 278 625 l 624 625 m 504 1375 l 660 1218 l 556 1114 l 451 1218 l 347 1114 l 243 1218 l 400 1375 l 504 1375 "},"ã":{"ha":904,"x_min":69,"x_max":832,"o":"m 832 0 l 624 0 l 624 417 l 278 417 l 278 0 l 69 0 l 69 938 l 174 1042 l 728 1042 l 832 938 l 832 0 m 624 625 l 624 833 l 278 833 l 278 625 l 624 625 m 426 1114 l 322 1114 l 165 1271 l 267 1375 l 374 1269 l 478 1375 l 582 1375 l 738 1218 l 633 1114 l 529 1218 l 426 1114 "},"ä":{"ha":904,"x_min":69,"x_max":832,"o":"m 832 0 l 624 0 l 624 417 l 278 417 l 278 0 l 69 0 l 69 938 l 174 1042 l 728 1042 l 832 938 l 832 0 m 624 625 l 624 833 l 278 833 l 278 625 l 624 625 m 353 1111 l 144 1111 l 144 1319 l 353 1319 l 353 1111 m 758 1111 l 550 1111 l 550 1319 l 758 1319 l 758 1111 "},"å":{"ha":904,"x_min":69,"x_max":832,"o":"m 832 0 l 624 0 l 624 417 l 278 417 l 278 0 l 69 0 l 69 938 l 174 1042 l 726 1042 l 832 938 l 832 0 m 624 625 l 624 833 l 278 833 l 278 625 l 624 625 m 401 1218 l 507 1218 l 558 1250 l 558 1378 l 508 1411 l 401 1411 l 351 1378 l 351 1250 l 401 1218 m 544 1113 l 354 1113 l 229 1193 l 229 1447 l 357 1526 l 547 1526 l 672 1447 l 672 1193 l 544 1113 "},"æ":{"ha":1458,"x_min":69,"x_max":1388,"o":"m 1386 1 l 624 0 l 624 417 l 278 417 l 278 0 l 69 0 l 69 938 l 174 1042 l 1386 1043 l 1386 835 l 835 835 l 835 626 l 1388 626 l 1388 418 l 835 418 l 835 210 l 1386 210 l 1386 1 m 624 625 l 624 833 l 278 833 l 278 625 l 624 625 "},"ç":{"ha":904,"x_min":69,"x_max":832,"o":"m 832 0 l 597 0 l 597 -210 l 389 -210 l 389 0 l 174 0 l 69 104 l 69 938 l 174 1042 l 832 1042 l 832 833 l 278 833 l 278 208 l 832 208 l 832 0 "},"è":{"ha":903,"x_min":69,"x_max":831,"o":"m 829 0 l 174 0 l 69 104 l 69 938 l 174 1042 l 829 1042 l 829 833 l 278 833 l 278 625 l 831 625 l 831 417 l 278 417 l 278 208 l 829 208 l 829 0 m 476 1375 l 632 1218 l 528 1114 l 372 1271 l 476 1375 "},"é":{"ha":903,"x_min":69,"x_max":831,"o":"m 829 0 l 174 0 l 69 104 l 69 938 l 174 1042 l 829 1042 l 829 833 l 278 833 l 278 625 l 831 625 l 831 417 l 278 417 l 278 208 l 829 208 l 829 0 m 539 1375 l 643 1271 l 488 1114 l 383 1218 l 539 1375 "},"ê":{"ha":903,"x_min":69,"x_max":831,"o":"m 829 0 l 174 0 l 69 104 l 69 938 l 174 1042 l 829 1042 l 829 833 l 278 833 l 278 625 l 831 625 l 831 417 l 278 417 l 278 208 l 829 208 l 829 0 m 504 1375 l 660 1218 l 556 1114 l 451 1218 l 347 1114 l 243 1218 l 400 1375 l 504 1375 "},"ë":{"ha":903,"x_min":69,"x_max":831,"o":"m 829 0 l 174 0 l 69 104 l 69 938 l 174 1042 l 829 1042 l 829 833 l 278 833 l 278 625 l 831 625 l 831 417 l 278 417 l 278 208 l 829 208 l 829 0 m 758 1111 l 550 1111 l 550 1319 l 758 1319 l 758 1111 m 353 1111 l 144 1111 l 144 1319 l 353 1319 l 353 1111 "},"ì":{"ha":347,"x_min":43,"x_max":303,"o":"m 278 0 l 69 0 l 69 1042 l 278 1042 l 278 0 m 147 1375 l 303 1218 l 199 1114 l 43 1271 l 147 1375 "},"í":{"ha":347,"x_min":42,"x_max":301,"o":"m 67 0 l 275 0 l 275 1042 l 67 1042 l 67 0 m 197 1375 l 42 1218 l 146 1114 l 301 1271 l 197 1375 "},"î":{"ha":347,"x_min":-33,"x_max":383,"o":"m 278 0 l 69 0 l 69 1042 l 278 1042 l 278 0 m 228 1375 l 383 1218 l 279 1114 l 175 1218 l 71 1114 l -33 1218 l 124 1375 l 228 1375 "},"ï":{"ha":347,"x_min":-71,"x_max":419,"o":"m 278 0 l 69 0 l 69 1042 l 278 1042 l 278 0 m 138 1111 l -71 1111 l -71 1319 l 138 1319 l 138 1111 m 419 1111 l 211 1111 l 211 1319 l 419 1319 l 419 1111 "},"ð":{"ha":904,"x_min":26,"x_max":833,"o":"m 833 104 l 729 0 l 167 0 l 167 418 l 26 418 l 26 626 l 167 626 l 167 1042 l 729 1042 l 833 938 l 833 104 m 522 626 l 521 418 l 375 418 l 375 208 l 625 208 l 625 833 l 375 833 l 375 626 l 522 626 "},"ñ":{"ha":904,"x_min":69,"x_max":833,"o":"m 833 -1 l 625 0 l 625 833 l 278 833 l 278 0 l 69 0 l 69 1042 l 729 1042 l 833 938 l 833 -1 m 426 1114 l 322 1114 l 165 1271 l 267 1375 l 374 1269 l 478 1375 l 582 1375 l 738 1218 l 633 1114 l 529 1218 l 426 1114 "},"ò":{"ha":904,"x_min":69,"x_max":835,"o":"m 835 104 l 731 0 l 174 0 l 69 104 l 69 938 l 174 1042 l 731 1042 l 835 938 l 835 104 m 626 208 l 626 833 l 278 833 l 278 208 l 626 208 m 425 1375 l 581 1218 l 476 1114 l 321 1271 l 425 1375 "},"ó":{"ha":904,"x_min":69,"x_max":835,"o":"m 835 104 l 731 0 l 174 0 l 69 104 l 69 938 l 174 1042 l 731 1042 l 835 938 l 835 104 m 626 208 l 626 833 l 278 833 l 278 208 l 626 208 m 476 1375 l 581 1271 l 425 1114 l 321 1218 l 476 1375 "},"ô":{"ha":904,"x_min":69,"x_max":835,"o":"m 835 104 l 731 0 l 174 0 l 69 104 l 69 938 l 174 1042 l 731 1042 l 835 938 l 835 104 m 626 208 l 626 833 l 278 833 l 278 208 l 626 208 m 504 1375 l 660 1218 l 556 1114 l 451 1218 l 347 1114 l 243 1218 l 400 1375 l 504 1375 "},"õ":{"ha":904,"x_min":69,"x_max":835,"o":"m 835 104 l 731 0 l 174 0 l 69 104 l 69 938 l 174 1042 l 731 1042 l 835 938 l 835 104 m 626 208 l 626 833 l 278 833 l 278 208 l 626 208 m 426 1114 l 322 1114 l 165 1271 l 267 1375 l 374 1269 l 478 1375 l 582 1375 l 738 1218 l 633 1114 l 529 1218 l 426 1114 "},"ö":{"ha":904,"x_min":69,"x_max":835,"o":"m 835 104 l 731 0 l 174 0 l 69 104 l 69 938 l 174 1042 l 731 1042 l 835 938 l 835 104 m 626 208 l 626 833 l 278 833 l 278 208 l 626 208 m 353 1111 l 144 1111 l 144 1319 l 353 1319 l 353 1111 m 758 1111 l 550 1111 l 550 1319 l 758 1319 l 758 1111 "},"÷":{"ha":1113,"x_min":36,"x_max":1078,"o":"m 36 417 l 36 625 l 1078 625 l 1078 417 l 36 417 m 658 69 l 450 69 l 450 278 l 658 278 l 658 69 m 658 765 l 450 765 l 450 974 l 658 974 l 658 765 "},"ø":{"ha":904,"x_min":69,"x_max":835,"o":"m 835 104 l 731 0 l 174 0 l 69 104 l 69 938 l 174 1042 l 731 1042 l 835 938 l 835 104 m 626 208 l 626 833 l 618 833 l 493 208 l 626 208 m 278 833 l 278 208 l 285 208 l 410 833 l 278 833 "},"ù":{"ha":903,"x_min":69,"x_max":836,"o":"m 836 104 l 732 0 l 174 0 l 69 104 l 69 1042 l 278 1042 l 278 208 l 628 208 l 628 1042 l 836 1042 l 836 104 m 425 1375 l 581 1218 l 476 1114 l 321 1271 l 425 1375 "},"ú":{"ha":903,"x_min":69,"x_max":836,"o":"m 836 104 l 732 0 l 174 0 l 69 104 l 69 1042 l 278 1042 l 278 208 l 628 208 l 628 1042 l 836 1042 l 836 104 m 476 1375 l 581 1271 l 425 1114 l 321 1218 l 476 1375 "},"û":{"ha":903,"x_min":69,"x_max":836,"o":"m 836 104 l 732 0 l 174 0 l 69 104 l 69 1042 l 278 1042 l 278 208 l 628 208 l 628 1042 l 836 1042 l 836 104 m 504 1375 l 660 1218 l 556 1114 l 451 1218 l 347 1114 l 243 1218 l 400 1375 l 504 1375 "},"ü":{"ha":903,"x_min":69,"x_max":836,"o":"m 836 104 l 732 0 l 174 0 l 69 104 l 69 1042 l 278 1042 l 278 208 l 628 208 l 628 1042 l 836 1042 l 836 104 m 758 1111 l 550 1111 l 550 1319 l 758 1319 l 758 1111 m 353 1111 l 144 1111 l 144 1319 l 353 1319 l 353 1111 "},"ý":{"ha":904,"x_min":69,"x_max":838,"o":"m 838 521 l 733 417 l 554 417 l 554 0 l 346 0 l 346 417 l 174 417 l 69 521 l 69 1042 l 278 1042 l 278 625 l 629 625 l 629 1042 l 838 1042 l 838 521 m 476 1375 l 581 1271 l 425 1114 l 321 1218 l 476 1375 "},"þ":{"ha":904,"x_min":69,"x_max":838,"o":"m 278 1042 l 278 833 l 733 833 l 838 729 l 838 313 l 733 208 l 278 208 l 278 0 l 69 0 l 69 1042 l 278 1042 m 629 417 l 629 625 l 278 625 l 278 417 l 629 417 "},"ÿ":{"ha":904,"x_min":69,"x_max":838,"o":"m 838 521 l 733 417 l 554 417 l 554 0 l 346 0 l 346 417 l 174 417 l 69 521 l 69 1042 l 278 1042 l 278 625 l 629 625 l 629 1042 l 838 1042 l 838 521 m 758 1111 l 550 1111 l 550 1319 l 758 1319 l 758 1111 m 353 1111 l 144 1111 l 144 1319 l 353 1319 l 353 1111 "}}}
